<svg width="55" height="45" viewBox="0 0 55 45" fill="none" xmlns="http://www.w3.org/2000/svg">
<rect width="5" height="6" transform="matrix(-1 0 0 1 8 38)" fill="#439679"/>
<rect width="5" height="26" transform="matrix(-1 0 0 1 26 18)" fill="#439679"/>
<rect opacity="0.5" width="5" height="6" transform="matrix(-1 0 0 1 26 12)" fill="#439679"/>
<rect width="5" height="6" transform="matrix(-1 0 0 1 26 38)" fill="#296351"/>
<rect width="5" height="28" transform="matrix(-1 0 0 1 35 16)" fill="#439679"/>
<rect width="5" height="14" transform="matrix(-1 0 0 1 35 30)" fill="#296351"/>
<rect width="5" height="10" transform="matrix(-1 0 0 1 44 34)" fill="#439679"/>
<rect width="5" height="3" transform="matrix(-1 0 0 1 44 41)" fill="#296351"/>
<rect width="5" height="6" transform="matrix(-1 0 0 1 53 38)" fill="#439679"/>
<rect width="5" height="12" transform="matrix(-1 0 0 1 17 32)" fill="#439679"/>
<line x1="0.5" y1="5.74604e-08" x2="0.499999" y2="44.7516" stroke="#616161"/>
<line x1="4.24813e-10" y1="44.2517" x2="54.7239" y2="44.2517" stroke="#616161"/>
</svg>
