<svg width="22" height="20" viewBox="0 0 22 20" fill="none" xmlns="http://www.w3.org/2000/svg">
<path d="M0.75 19H17.25M1.5 1H16.5M2.25 1V19M15.75 1V19M6 4.75H7.5M6 7.75H7.5M6 10.75H7.5M10.5 4.75H12M10.5 7.75H12M10.5 10.75H12M6 19V15.625C6 15.004 6.504 14.5 7.125 14.5H10.875C11.496 14.5 12 15.004 12 15.625V19" stroke="#032752" stroke-width="1.5" stroke-linecap="round" stroke-linejoin="round"/>
<path fill-rule="evenodd" clip-rule="evenodd" d="M16.5621 12.875C16.5621 12.3777 16.7597 11.9008 17.1113 11.5492C17.4629 11.1975 17.9399 11 18.4371 11C18.9344 11 19.4113 11.1975 19.763 11.5492C20.1146 11.9008 20.3121 12.3777 20.3121 12.875C20.3121 13.3723 20.1146 13.8492 19.763 14.2008C19.4113 14.5525 18.9344 14.75 18.4371 14.75C17.9399 14.75 17.4629 14.5525 17.1113 14.2008C16.7597 13.8492 16.5621 13.3723 16.5621 12.875ZM15 18.7521C15.0141 17.8498 15.3824 16.9892 16.0255 16.3561C16.6685 15.723 17.5347 15.3681 18.4371 15.3681C19.3395 15.3681 20.2058 15.723 20.8488 16.3561C21.4919 16.9892 21.8602 17.8498 21.8742 18.7521C21.8753 18.8128 21.8587 18.8726 21.8263 18.924C21.794 18.9754 21.7473 19.0163 21.6921 19.0417C20.671 19.5099 19.5605 19.7515 18.4371 19.75C17.2763 19.75 16.1734 19.4967 15.1821 19.0417C15.1269 19.0163 15.0803 18.9754 15.048 18.924C15.0156 18.8726 14.999 18.8128 15 18.7521Z" fill="#032752"/>
</svg>
