<svg width="24" height="24" viewBox="0 0 24 24" fill="none" xmlns="http://www.w3.org/2000/svg">
<g clip-path="url(#clip0_7_112)">
<path fill-rule="evenodd" clip-rule="evenodd" d="M10.5 3C10.1023 3.00027 9.72088 3.15839 9.43963 3.43963C9.15839 3.72088 9.00027 4.10226 9 4.5H15C15 4.10218 14.842 3.72064 14.5607 3.43934C14.2794 3.15804 13.8978 3 13.5 3H10.5ZM7.807 3.178C8.05415 2.67453 8.43749 2.25043 8.9135 1.95383C9.38952 1.65723 9.93914 1.5 10.5 1.5H13.5C14.061 1.49982 14.6109 1.65695 15.0871 1.95357C15.5633 2.25018 15.9468 2.67438 16.194 3.178C16.691 3.22 17.186 3.27 17.68 3.328C19.177 3.501 20.25 4.788 20.25 6.257V19.5C20.25 20.2956 19.9339 21.0587 19.3713 21.6213C18.8087 22.1839 18.0456 22.5 17.25 22.5H6.75C5.95435 22.5 5.19129 22.1839 4.62868 21.6213C4.06607 21.0587 3.75 20.2956 3.75 19.5V6.257C3.75 4.787 4.823 3.501 6.32 3.327C6.813 3.27 7.309 3.221 7.807 3.178Z" fill="#032752"/>
<path d="M15.75 6C15.75 6.99456 15.3549 7.94839 14.6516 8.65165C13.9484 9.35491 12.9945 9.75 12 9.75C11.0054 9.75 10.0516 9.35491 9.34833 8.65165C8.64506 7.94839 8.24998 6.99456 8.24998 6C8.24998 5.00544 8.64506 4.05161 9.34833 3.34835C10.0516 2.64509 11.0054 2.25 12 2.25C12.9945 2.25 13.9484 2.64509 14.6516 3.34835C15.3549 4.05161 15.75 5.00544 15.75 6ZM4.50098 20.118C4.53311 18.1504 5.33731 16.2742 6.74015 14.894C8.14299 13.5139 10.0321 12.7405 12 12.7405C13.9679 12.7405 15.857 13.5139 17.2598 14.894C18.6626 16.2742 19.4668 18.1504 19.499 20.118C17.1464 21.1968 14.5881 21.7535 12 21.75C9.32398 21.75 6.78398 21.166 4.50098 20.118Z" stroke="#032752" stroke-width="1.5" stroke-linecap="round" stroke-linejoin="round"/>
<path d="M14.1874 10.5C14.1874 11.0802 13.9569 11.6366 13.5467 12.0468C13.1365 12.457 12.5801 12.6875 11.9999 12.6875C11.4197 12.6875 10.8633 12.457 10.4531 12.0468C10.0429 11.6366 9.8124 11.0802 9.8124 10.5C9.8124 9.91984 10.0429 9.36344 10.4531 8.9532C10.8633 8.54297 11.4197 8.3125 11.9999 8.3125C12.5801 8.3125 13.1365 8.54297 13.5467 8.9532C13.9569 9.36344 14.1874 9.91984 14.1874 10.5ZM7.62549 18.7355C7.64423 17.5877 8.11335 16.4933 8.93167 15.6882C9.75 14.8831 10.852 14.4319 11.9999 14.4319C13.1479 14.4319 14.2498 14.8831 15.0681 15.6882C15.8865 16.4933 16.3556 17.5877 16.3743 18.7355C15.002 19.3648 13.5097 19.6895 11.9999 19.6875C10.4389 19.6875 8.95724 19.3468 7.62549 18.7355Z" fill="white" stroke="#032752" stroke-width="0.875" stroke-linecap="round" stroke-linejoin="round"/>
</g>
<defs>
<clipPath id="clip0_7_112">
<rect width="24" height="24" fill="white"/>
</clipPath>
</defs>
</svg>
