<svg width="24" height="28" viewBox="0 0 24 28" fill="none" xmlns="http://www.w3.org/2000/svg">
<g clip-path="url(#clip0_30_86)">
<path fill-rule="evenodd" clip-rule="evenodd" d="M11.6969 0.802523C11.8089 0.533273 12.1909 0.533273 12.3029 0.802523L12.8234 2.05402L14.1744 2.16252C14.4654 2.18577 14.5834 2.54877 14.3616 2.73877L13.3324 3.62052L13.6466 4.93877C13.7144 5.22277 13.4056 5.44702 13.1566 5.29502L11.9999 4.58852L10.8431 5.29502C10.5941 5.44702 10.2854 5.22252 10.3531 4.93877L10.6674 3.62052L9.63813 2.73877C9.41638 2.54877 9.53438 2.18577 9.82538 2.16252L11.1764 2.05402L11.6969 0.802523Z" fill="#032752"/>
</g>
<path d="M3 12.625C3 12.004 3.504 11.5 4.125 11.5H6.375C6.996 11.5 7.5 12.004 7.5 12.625V23.875C7.5 24.496 6.996 25 6.375 25H4.125C3.82663 25 3.54048 24.8815 3.3295 24.6705C3.11853 24.4595 3 24.1734 3 23.875V12.625ZM9.75 8.125C9.75 7.504 10.254 7 10.875 7H13.125C13.746 7 14.25 7.504 14.25 8.125V23.875C14.25 24.496 13.746 25 13.125 25H10.875C10.5766 25 10.2905 24.8815 10.0795 24.6705C9.86853 24.4595 9.75 24.1734 9.75 23.875V8.125Z" fill="#032752"/>
<path d="M16.25 17.125C16.25 16.504 16.754 16 17.375 16H19.625C20.246 16 20.75 16.504 20.75 17.125V23.875C20.75 24.496 20.246 25 19.625 25H17.375C17.0766 25 16.7905 24.8815 16.5795 24.6705C16.3685 24.4595 16.25 24.1734 16.25 23.875V17.125Z" fill="#032752"/>
<path d="M3 12.625C3 12.004 3.504 11.5 4.125 11.5H6.375C6.996 11.5 7.5 12.004 7.5 12.625V23.875C7.5 24.496 6.996 25 6.375 25H4.125C3.82663 25 3.54048 24.8815 3.3295 24.6705C3.11853 24.4595 3 24.1734 3 23.875V12.625ZM9.75 8.125C9.75 7.504 10.254 7 10.875 7H13.125C13.746 7 14.25 7.504 14.25 8.125V23.875C14.25 24.496 13.746 25 13.125 25H10.875C10.5766 25 10.2905 24.8815 10.0795 24.6705C9.86853 24.4595 9.75 24.1734 9.75 23.875V8.125Z" stroke="#032752" stroke-width="1.5" stroke-linecap="round" stroke-linejoin="round"/>
<path d="M16.25 17.125C16.25 16.504 16.754 16 17.375 16H19.625C20.246 16 20.75 16.504 20.75 17.125V23.875C20.75 24.496 20.246 25 19.625 25H17.375C17.0766 25 16.7905 24.8815 16.5795 24.6705C16.3685 24.4595 16.25 24.1734 16.25 23.875V17.125Z" stroke="#032752" stroke-width="1.5" stroke-linecap="round" stroke-linejoin="round"/>
<defs>
<clipPath id="clip0_30_86">
<rect width="6" height="6" fill="white" transform="translate(9)"/>
</clipPath>
</defs>
</svg>
