<svg width="24" height="24" viewBox="0 0 24 24" fill="none" xmlns="http://www.w3.org/2000/svg">
<path d="M10.7113 10.8991H11.7122L12.558 11.7328L12.8822 11.4858L12.7748 11.3654C12.4672 11.0204 12.2972 10.5743 12.2972 10.1119L10.9363 10.1076L10.7113 10.8991Z" fill="#032752"/>
<path d="M4.5 9.97292C5.10983 9.97292 6.24817 10.2854 6.11933 11.4214C5.94333 12.9739 4.5 13.3883 4.5 15.0786C4.5 16.0756 4.657 16.8888 5.0555 17.1183L5.16 16.5361C5.20116 16.3076 5.414 16.1524 5.6445 16.1811L8.008 16.4874C8.28833 16.5239 8.525 16.4578 8.61717 16.4009C8.6195 16.1983 8.643 15.9743 8.7125 15.7269C8.86283 15.1924 9.73083 13.5326 10.012 12.5353H13.9247C14.2845 12.5353 14.6007 12.2961 14.6983 11.9496L15.0915 10.5556C15.1965 10.1834 15.536 9.92642 15.9227 9.92642H18.6515L18.8675 9.07742L4.5 9.07742V9.97292ZM14.383 11.0256L14.1637 11.7991C14.1333 11.9059 14.0358 11.9796 13.9248 11.9796H10.4678C10.3182 11.9796 10.21 11.8366 10.2508 11.6926L10.7512 9.92208L13.5537 9.92642C14.126 9.92725 14.5392 10.4748 14.383 11.0256Z" fill="#032752"/>
<path d="M19.5 8.79975V6.77742H18.9025L18.5212 6.46875H18.068L17.9885 6.77742L5.05567 6.77742L4.53567 8.79975L19.5 8.79975Z" fill="#032752"/>
<path d="M7.97233 16.7631L5.60882 16.4568C5.52549 16.4454 5.44832 16.5026 5.43349 16.5853L5.32482 17.1909L7.98966 17.5361C8.38716 17.5876 8.72949 17.4964 8.71433 17.3129C8.70233 17.1686 8.65149 16.9609 8.62749 16.6998C8.44616 16.7664 8.20549 16.7929 7.97233 16.7631Z" fill="#032752"/>
</svg>
